<svg width="212" height="56" viewBox="0 0 212 56" fill="none" xmlns="http://www.w3.org/2000/svg">
<path d="M73.2395 55.5095L74.3576 46.9692L77.5685 47.1423C78.5241 47.2769 79.3077 47.2673 79.9193 47.1134C80.55 46.9596 81.0087 46.6614 81.2954 46.219C81.6012 45.7766 81.7637 45.2092 81.7828 44.5167L81.7254 43.8243L70 12.5482H82.0121L85.9684 26.282C86.58 28.417 87.1056 30.5617 87.5452 32.7161C88.0039 34.8704 88.4912 37.1209 89.0073 39.4675H86.2551C86.752 37.1209 87.2585 34.8608 87.7745 32.6872C88.3097 30.5137 88.9021 28.3786 89.552 26.282L93.7949 12.5482H105.664L92.6768 47.2866C91.9888 49.1523 91.1383 50.7296 90.1253 52.0184C89.1124 53.3263 87.851 54.3169 86.3411 54.9902C84.8312 55.6634 82.9773 56 80.7794 56C79.4797 56 78.1705 55.9519 76.8518 55.8557C75.5521 55.7788 74.3481 55.6634 73.2395 55.5095Z" fill="#1FFFAD"/>
<path d="M114.181 44.3725C112.136 44.3725 110.329 44.0359 108.762 43.3626C107.214 42.6894 106 41.6796 105.121 40.3331C104.242 38.9867 103.803 37.2748 103.803 35.1974C103.803 33.4662 104.099 31.9948 104.691 30.783C105.284 29.5519 106.106 28.5517 107.157 27.7823C108.227 27.0129 109.469 26.4262 110.884 26.0223C112.317 25.5991 113.856 25.3298 115.499 25.2144C117.277 25.0798 118.701 24.9163 119.771 24.7239C120.86 24.5316 121.644 24.2623 122.122 23.9161C122.619 23.5506 122.867 23.0697 122.867 22.4734V22.358C122.867 21.8772 122.714 21.4636 122.408 21.1174C122.122 20.7519 121.72 20.473 121.204 20.2807C120.688 20.0883 120.067 19.9921 119.341 19.9921C118.596 19.9921 117.936 20.0979 117.363 20.3095C116.809 20.5211 116.359 20.8385 116.015 21.2616C115.671 21.6656 115.452 22.1849 115.356 22.8197L104.921 22.358C105.15 20.2614 105.848 18.4437 107.013 16.9049C108.179 15.3469 109.813 14.1447 111.916 13.2984C114.037 12.4328 116.627 12 119.685 12C121.978 12 124.033 12.2501 125.849 12.7502C127.664 13.2503 129.193 13.9716 130.436 14.9141C131.697 15.8566 132.653 16.9819 133.302 18.2898C133.952 19.5978 134.277 21.0597 134.277 22.6754V43.8243H123.297V39.4387H123.125C122.456 40.6505 121.682 41.6122 120.803 42.3239C119.924 43.0356 118.93 43.555 117.821 43.882C116.732 44.209 115.518 44.3725 114.181 44.3725ZM117.907 37.1016C118.748 37.1016 119.551 36.9381 120.316 36.6111C121.099 36.2649 121.739 35.7744 122.236 35.1397C122.733 34.4857 122.982 33.6874 122.982 32.7449V30.2348C122.676 30.3309 122.361 30.4367 122.036 30.5521C121.711 30.6483 121.357 30.7445 120.975 30.8407C120.612 30.9176 120.211 31.0042 119.771 31.1003C119.35 31.1773 118.892 31.2638 118.395 31.36C117.554 31.4946 116.847 31.7062 116.273 31.9948C115.719 32.2833 115.299 32.6391 115.012 33.0623C114.725 33.4855 114.582 33.9663 114.582 34.5049C114.582 35.0627 114.725 35.534 115.012 35.9187C115.299 36.3034 115.69 36.6015 116.187 36.8131C116.684 37.0055 117.258 37.1016 117.907 37.1016Z" fill="#1FFFAD"/>
<path d="M138.435 43.8243V12.5482H149.587V18.3764H149.759C150.333 16.2221 151.221 14.6833 152.426 13.76C153.649 12.8367 155.216 12.3751 157.127 12.3751C157.662 12.3751 158.159 12.3943 158.618 12.4328C159.096 12.4713 159.564 12.5193 160.023 12.577V22.0984C159.545 22.0022 158.886 21.9349 158.045 21.8964C157.223 21.8579 156.477 21.8387 155.808 21.8387C154.643 21.8387 153.611 22.108 152.712 22.6466C151.833 23.1659 151.145 23.9064 150.648 24.8682C150.17 25.8107 149.931 26.936 149.931 28.2439V43.8243H138.435Z" fill="#1FFFAD"/>
<path d="M162.661 43.8243V12.5482H173.469L173.785 20.5403H173.183C173.68 18.5207 174.416 16.8857 175.39 15.6354C176.384 14.3851 177.54 13.4715 178.859 12.8944C180.197 12.2981 181.592 12 183.045 12C185.3 12 187.221 12.7021 188.807 14.1062C190.413 15.5104 191.502 17.7897 192.075 20.9443H191.072C191.492 18.8476 192.238 17.1454 193.308 15.8374C194.378 14.5102 195.649 13.5388 197.121 12.9233C198.593 12.3078 200.122 12 201.708 12C203.753 12 205.55 12.452 207.098 13.3561C208.646 14.2409 209.85 15.4911 210.71 17.1069C211.57 18.7226 212 20.6365 212 22.8485V43.8243H200.533V25.7626C200.533 24.3585 200.179 23.2621 199.472 22.4734C198.765 21.6656 197.819 21.2616 196.634 21.2616C195.85 21.2616 195.172 21.4444 194.598 21.8098C194.025 22.1753 193.585 22.6946 193.279 23.3679C192.974 24.0219 192.821 24.8201 192.821 25.7626V43.8243H181.869V25.7626C181.869 24.3585 181.516 23.2621 180.809 22.4734C180.101 21.6656 179.155 21.2616 177.97 21.2616C177.187 21.2616 176.508 21.4444 175.935 21.8098C175.381 22.1753 174.941 22.6946 174.616 23.3679C174.31 24.0219 174.157 24.8201 174.157 25.7626V43.8243H162.661Z" fill="#1FFFAD"/>
<path fill-rule="evenodd" clip-rule="evenodd" d="M55.996 15.8691C55.996 13.6555 54.3427 11.0876 52.3243 10.1619L31.673 0.694277C29.6546 -0.231426 26.3495 -0.231426 24.3297 0.694277L3.67297 10.1619C1.65324 11.0876 0 13.6555 0 15.8691V40.1292C0 42.3429 1.65324 44.9107 3.67297 45.8377L24.3297 55.3067C26.3495 56.2311 29.6546 56.2311 31.673 55.3067L52.3284 45.8377C54.3468 44.912 56 42.3442 56 40.1292L55.996 15.8691ZM48.9087 19.2472L33.3141 26.3939C31.9681 27.0097 30.8672 28.723 30.8672 30.1987V46.6749C30.8672 48.1506 29.6546 49.3581 28.1725 49.3581H27.8195C26.3373 49.3581 25.1247 48.1506 25.1247 46.6749V30.1974C25.1247 28.7203 24.0239 27.0097 22.6778 26.3926L7.08724 19.2486C5.74121 18.6314 5.14701 17.0296 5.76681 15.6893L5.91367 15.3687C6.53347 14.0284 8.1409 13.4368 9.48694 14.0539L25.5491 21.4166C26.8951 22.0337 29.0981 22.0337 30.4442 21.4166L46.5104 14.0539C47.8564 13.4368 49.4638 14.0284 50.0836 15.3687L50.2305 15.6893C50.8489 17.0282 50.2548 18.6301 48.9087 19.2472Z" fill="#1FFFAD"/>
</svg>
