<svg xmlns="http://www.w3.org/2000/svg" version="1.1" xmlns:xlink="http://www.w3.org/1999/xlink" xmlns:svgjs="http://svgjs.dev/svgjs" width="344" height="344"><svg width="344" height="344" viewBox="0 0 344 344" fill="none" xmlns="http://www.w3.org/2000/svg">
<path fill-rule="evenodd" clip-rule="evenodd" d="M343.975 97.4816C343.975 83.8836 333.82 68.1098 321.421 62.4233L194.563 4.26485C182.164 -1.42162 161.861 -1.42162 149.454 4.26485L22.5625 62.4233C10.1556 68.1098 0 83.8836 0 97.4816V246.508C0 260.106 10.1556 275.88 22.5625 281.575L149.454 339.741C161.861 345.42 182.164 345.42 194.563 339.741L321.446 281.575C333.844 275.888 344 260.114 344 246.508L343.975 97.4816ZM300.439 118.233L204.644 162.134C196.375 165.917 189.613 176.441 189.613 185.506V286.717C189.613 295.783 182.164 303.2 173.059 303.2H170.891C161.786 303.2 154.337 295.783 154.337 286.717V185.498C154.337 176.425 147.575 165.917 139.307 162.126L43.5359 118.241C35.2674 114.45 31.6173 104.61 35.4247 96.3773L36.3268 94.4076C40.1342 86.1746 50.0084 82.5402 58.2769 86.3312L156.945 131.559C165.213 135.35 178.746 135.35 187.014 131.559L285.707 86.3312C293.975 82.5402 303.849 86.1746 307.657 94.4076L308.559 96.3773C312.358 104.602 308.708 114.442 300.439 118.233Z" fill="#1FFFAD"></path>
</svg><style>@media (prefers-color-scheme: light) { :root { filter: contrast(1) brightness(0.9); } }
@media (prefers-color-scheme: dark) { :root { filter: contrast(1) brightness(1); } }
</style></svg>